HIERARCHY
ROOT Hips
{
	OFFSET 0.000000 0.000000 0.000000
	CHANNELS 6 Xposition Yposition Zposition Zrotation Yrotation Xrotation 
	JOINT LHipJoint
	{
		OFFSET 0.000000 0.000000 0.000000
		CHANNELS 3 Zrotation Yrotation Xrotation
		JOINT LeftUpLeg
		{
			OFFSET 1.363060 -1.794630 0.839290
			CHANNELS 3 Zrotation Yrotation Xrotation
			JOINT LeftLeg
			{
				OFFSET 2.448110 -6.726130 0.000000
				CHANNELS 3 Zrotation Yrotation Xrotation
				JOINT LeftFoot
				{
					OFFSET 2.562200 -7.039590 0.000000
					CHANNELS 3 Zrotation Yrotation Xrotation
					JOINT LeftToeBase
					{
						OFFSET 0.157640 -0.433110 2.322550
						CHANNELS 3 Zrotation Yrotation Xrotation
						End Site
						{
							OFFSET 0.000000 0.000000 0.000000
						}
					}
				}
			}
		}
	}
	JOINT RHipJoint
	{
		OFFSET 0.000000 0.000000 0.000000
		CHANNELS 3 Zrotation Yrotation Xrotation
		JOINT RightUpLeg
		{
			OFFSET -1.305520 -1.794630 0.839290
			CHANNELS 3 Zrotation Yrotation Xrotation
			JOINT RightLeg
			{
				OFFSET -2.542530 -6.985550 0.000000
				CHANNELS 3 Zrotation Yrotation Xrotation
				JOINT RightFoot
				{
					OFFSET -2.568260 -7.056230 0.000000
					CHANNELS 3 Zrotation Yrotation Xrotation
					JOINT RightToeBase
					{
						OFFSET -0.164730 -0.452590 2.363150
						CHANNELS 3 Zrotation Yrotation Xrotation
						End Site
						{
							OFFSET 0.000000 0.000000 0.000000
						}
					}
				}
			}
		}
	}
	JOINT LowerBack
	{
		OFFSET 0.000000 0.000000 0.000000
		CHANNELS 3 Zrotation Yrotation Xrotation
		JOINT Spine
		{
			OFFSET 0.028270 2.035590 -0.193380
			CHANNELS 3 Zrotation Yrotation Xrotation
			JOINT Spine1
			{
				OFFSET 0.056720 2.048850 -0.042750
				CHANNELS 3 Zrotation Yrotation Xrotation
				JOINT Neck
				{
					OFFSET 0.000000 0.000000 0.000000
					CHANNELS 3 Zrotation Yrotation Xrotation
					JOINT Neck1
					{
						OFFSET -0.054170 1.746240 0.172020
						CHANNELS 3 Zrotation Yrotation Xrotation
						JOINT Head
						{
							OFFSET 0.104070 1.761360 -0.123970
							CHANNELS 3 Zrotation Yrotation Xrotation
							End Site
							{
								OFFSET 0.000000 0.000000 0.000000
							}
						}
					}
				}
				JOINT LeftShoulder
				{
					OFFSET 0.000000 0.000000 0.000000
					CHANNELS 3 Zrotation Yrotation Xrotation
					JOINT LeftArm
					{
						OFFSET 3.362410 1.200890 -0.311210
						CHANNELS 3 Zrotation Yrotation Xrotation
						JOINT LeftForeArm
						{
							OFFSET 4.983000 -0.000000 -0.000000
							CHANNELS 3 Zrotation Yrotation Xrotation
							JOINT LeftHand
							{
								OFFSET 3.483560 -0.000000 -0.000000
								CHANNELS 3 Zrotation Yrotation Xrotation
								JOINT LeftFingerBase
								{
									OFFSET 0.000000 0.000000 0.000000
									CHANNELS 3 Zrotation Yrotation Xrotation
									JOINT LeftHandIndex1
									{
										OFFSET 0.715260 -0.000000 -0.000000
										CHANNELS 3 Zrotation Yrotation Xrotation
										End Site
										{
											OFFSET 0.000000 0.000000 0.000000
										}
									}
								}
								JOINT LThumb
								{
									OFFSET 0.000000 0.000000 0.000000
									CHANNELS 3 Zrotation Yrotation Xrotation
									End Site
									{
										OFFSET 0.000000 0.000000 0.000000
									}
								}
							}
						}
					}
				}
				JOINT RightShoulder
				{
					OFFSET 0.000000 0.000000 0.000000
					CHANNELS 3 Zrotation Yrotation Xrotation
					JOINT RightArm
					{
						OFFSET -3.136600 1.374050 -0.404650
						CHANNELS 3 Zrotation Yrotation Xrotation
						JOINT RightForeArm
						{
							OFFSET -5.241900 -0.000000 -0.000000
							CHANNELS 3 Zrotation Yrotation Xrotation
							JOINT RightHand
							{
								OFFSET -3.444170 -0.000000 -0.000000
								CHANNELS 3 Zrotation Yrotation Xrotation
								JOINT RightFingerBase
								{
									OFFSET 0.000000 0.000000 0.000000
									CHANNELS 3 Zrotation Yrotation Xrotation
									JOINT RightHandIndex1
									{
										OFFSET -0.622530 -0.000000 -0.000000
										CHANNELS 3 Zrotation Yrotation Xrotation
										End Site
										{
											OFFSET 0.000000 0.000000 0.000000
										}
									}
								}
								JOINT RThumb
								{
									OFFSET 0.000000 0.000000 0.000000
									CHANNELS 3 Zrotation Yrotation Xrotation
									End Site
									{
										OFFSET 0.000000 0.000000 0.000000
									}
								}
							}
						}
					}
				}
			}
		}
	}
}
MOTION
Frames: 7
Frame Time: 0.008333
3.869976 17.251565 1.040300 -8.190982 -71.073220 15.783324 -10.364849 1.640984 5.510401 -5.773882 -17.712302 -14.210214 -1.460828 0.397178 18.612589 1.149492 5.226904 -10.126775 -0.304799 -0.000000 -41.184200 9.681643 -0.856695 -1.352304 8.916297 -7.375522 -23.888036 -0.997326 -2.705181 48.919649 -3.340659 -20.005176 13.114547 -7.455200 -0.000000 -81.731600 1.100915 -3.165767 -4.565006 -0.034438 -3.339495 -3.284220 -4.762146 -3.367655 1.790381 10.696971 -16.873516 -6.517977 -2.140672 -0.181991 0.338608 0.000000 0.000000 0.000000 1.071034 8.356366 -1.719430 -65.331965 -9.857805 -9.230345 -0.723488 -71.895632 -0.110960 21.440929 -7.242050 -1.466604 -0.268951 0.413783 0.000000 0.000000 0.000000 0.000000 0.000000 0.000000 0.000000 10.186857 -15.413817 -0.056865 66.718602 -10.559594 -9.622899 2.619963 37.277713 0.010791 -9.770749 7.632551 -0.670826 0.171130 -0.081161 -0.000000 0.000000 0.000000 0.000000 0.000000 0.000000 0.000000 
3.898733 17.270180 1.077655 -8.461067 -71.087108 16.307989 -10.422363 1.574959 5.423438 -5.717813 -17.750537 -14.182968 -1.429807 0.367585 18.029795 1.152331 5.338081 -9.733210 -0.259801 0.000000 -41.033100 9.753354 -0.470698 -1.322337 8.669824 -6.888484 -27.198475 -1.260248 -2.832898 52.953624 -3.308239 -19.625489 18.502836 -8.660400 0.000000 -82.678800 1.450027 -3.390473 -4.455610 0.073914 -3.586309 -3.272289 -4.683433 -3.616349 1.772217 10.785056 -17.090348 -6.624077 -2.122462 -0.178896 0.310592 0.000000 0.000000 0.000000 1.006965 7.951868 -1.715949 -66.218146 -10.672788 -9.672236 -0.749305 -71.513569 -0.113979 21.500670 -7.108224 -1.445537 -0.265526 0.417821 0.000000 0.000000 0.000000 0.000000 0.000000 0.000000 0.000000 10.216246 -15.869422 0.027036 66.634144 -11.064897 -9.777888 2.697204 36.271330 0.011940 -9.579399 7.640220 -0.657965 0.170356 -0.074844 -0.000000 0.000000 0.000000 0.000000 0.000000 0.000000 0.000000 
3.928031 17.289648 1.114782 -8.807132 -71.228637 16.994620 -10.486722 1.498061 5.319059 -5.646890 -17.686364 -14.248486 -1.393444 0.329725 17.419927 1.159096 5.474386 -9.326500 -0.212100 -0.000000 -40.869600 9.774417 -0.061086 -1.226245 8.381187 -6.155953 -30.568099 -1.425365 -2.926610 56.589364 -3.238821 -18.516055 23.708080 -9.283200 0.000000 -82.736500 1.839858 -3.597468 -4.384694 0.188771 -3.819929 -3.269933 -4.611233 -3.852039 1.748724 10.874452 -17.305209 -6.740821 -2.103882 -0.175702 0.280092 0.000000 0.000000 0.000000 1.003777 7.530132 -1.708094 -67.066949 -11.400723 -10.091468 -0.769879 -71.202769 -0.116739 21.482254 -6.919902 -1.408572 -0.261742 0.421773 0.000000 0.000000 0.000000 0.000000 0.000000 0.000000 0.000000 10.241709 -16.298712 0.114147 66.500526 -11.551141 -9.850480 2.762185 35.508756 0.012969 -9.406186 7.682783 -0.649298 0.169642 -0.069647 -0.000000 0.000000 0.000000 0.000000 0.000000 0.000000 0.000000 
3.957682 17.309733 1.151937 -9.267682 -71.507569 17.878927 -10.561228 1.413460 5.195580 -5.554153 -17.490920 -14.413803 -1.353215 0.284909 16.788160 1.166142 5.610698 -8.911601 -0.161200 0.000000 -40.709800 9.746046 0.355590 -1.069921 8.052523 -5.200028 -34.008453 -1.512914 -3.009127 59.823881 -3.124218 -16.634478 28.418123 -9.134699 0.000000 -82.215400 2.277856 -3.780206 -4.347963 0.310807 -4.034378 -3.276663 -4.546295 -4.068617 1.719934 10.961710 -17.517616 -6.868146 -2.085649 -0.172458 0.247040 0.000000 0.000000 0.000000 1.068216 7.094135 -1.697109 -67.863214 -12.029727 -10.486335 -0.784427 -70.983926 -0.119265 21.391591 -6.685117 -1.358007 -0.257683 0.425823 0.000000 0.000000 0.000000 0.000000 0.000000 0.000000 0.000000 10.263156 -16.697509 0.205761 66.315335 -12.014128 -9.838471 2.815892 34.991684 0.013889 -9.238142 7.749926 -0.643024 0.168956 -0.065477 -0.000000 0.000000 0.000000 0.000000 0.000000 0.000000 0.000000 
3.987592 17.330098 1.189322 -9.872877 -71.924914 18.985695 -10.647662 1.323046 5.051521 -5.439302 -17.151285 -14.678393 -1.310709 0.234769 16.140515 1.171159 5.730872 -8.492830 -0.107699 0.000000 -40.561100 9.673043 0.768430 -0.862949 7.680626 -4.061528 -37.531932 -1.554880 -3.098132 62.658045 -2.962407 -14.029574 32.386833 -8.159500 0.000000 -81.406900 2.766478 -3.935235 -4.336117 0.439957 -4.226261 -3.290571 -4.488834 -4.262574 1.687542 11.044510 -17.730136 -7.008054 -2.067900 -0.169133 0.210716 0.000000 0.000000 0.000000 1.204328 6.654697 -1.683916 -68.594606 -12.560846 -10.855160 -0.792689 -70.870270 -0.121609 21.239844 -6.418258 -1.298142 -0.253465 0.430208 0.000000 0.000000 0.000000 0.000000 0.000000 0.000000 0.000000 10.280839 -17.067059 0.302660 66.078642 -12.439801 -9.743783 2.859481 34.708397 0.014693 -9.063984 7.829735 -0.637244 0.168278 -0.062243 -0.000000 0.000000 0.000000 0.000000 0.000000 0.000000 0.000000 
4.017971 17.350420 1.227088 -10.648697 -72.473132 20.332390 -10.746630 1.226910 4.885051 -5.306240 -16.668929 -15.036501 -1.267514 0.181259 15.485261 1.172954 5.826214 -8.074383 -0.052500 0.000000 -40.424500 9.559710 1.172917 -0.615335 7.259412 -2.785403 -41.143163 -1.582555 -3.202787 65.087499 -2.758994 -10.861621 35.455523 -6.461301 -0.000000 -80.601700 3.304427 -4.062392 -4.336508 0.575620 -4.395023 -3.309191 -4.438897 -4.433291 1.652564 11.121814 -17.943220 -7.162477 -2.050802 -0.165689 0.170357 0.000000 0.000000 0.000000 1.413790 6.219946 -1.668730 -69.248557 -12.996095 -11.202605 -0.794658 -70.874612 -0.123845 21.043161 -6.137993 -1.233775 -0.249218 0.435187 0.000000 0.000000 0.000000 0.000000 0.000000 0.000000 0.000000 10.295776 -17.408579 0.405785 65.793196 -12.812080 -9.577519 2.894029 34.638666 0.015367 -8.873844 7.909089 -0.630158 0.167574 -0.059860 -0.000000 0.000000 0.000000 0.000000 0.000000 0.000000 0.000000 
4.048976 17.370403 1.265388 -11.616941 -73.137584 21.934650 -10.857889 1.124013 4.694820 -5.161835 -16.058025 -15.479873 -1.224933 0.126396 14.832517 1.171536 5.895881 -7.660167 0.003399 0.000000 -40.295500 9.407683 1.568544 -0.335597 6.781712 -1.413716 -44.838658 -1.618105 -3.323882 67.101260 -2.524907 -7.391147 37.553589 -4.281300 0.000001 -80.032900 3.887707 -4.163922 -4.336040 0.716835 -4.542173 -3.329847 -4.396511 -4.582263 1.616287 11.193837 -18.156270 -7.333437 -2.034497 -0.162080 0.125124 0.000000 0.000000 0.000000 1.695232 5.797993 -1.651157 -69.813106 -13.340440 -11.537156 -0.790664 -71.006682 -0.126071 20.820665 -5.863713 -1.170406 -0.245087 0.440997 0.000000 0.000000 0.000000 0.000000 0.000000 0.000000 0.000000 10.309941 -17.724050 0.515958 65.463833 -13.113162 -9.357527 2.920536 34.755023 0.015892 -8.661444 7.974663 -0.620168 0.166819 -0.058249 -0.000000 0.000000 0.000000 0.000000 0.000000 0.000000 0.000000 
